/* XPM */
static char *_ed56943dd3c47c393432e361231a703P7axeO7VvdkFZuSH[] = {
/* columns rows colors chars-per-pixel */
"64 64 38 1 ",
"  c #222A5C",
". c #8FB0C4",
"X c #320836",
"o c #38002B",
"O c #566A89",
"+ c #8BABBF",
"@ c #212B5D",
"# c #576C8A",
"$ c #8DAEC2",
"% c #271F4F",
"& c black",
"* c #485A7E",
"= c #320633",
"- c #21295B",
"; c #21282D",
": c #3A4873",
"> c #4E5172",
", c #3E1740",
"< c #2F3A67",
"1 c #708AA5",
"2 c #330A37",
"3 c #2D3562",
"4 c #7792AC",
"5 c #4C274D",
"6 c #77829C",
"7 c #4D5D81",
"8 c #68808F",
"9 c #212C5E",
"0 c #84A3B9",
"q c #698190",
"w c #12161E",
"e c #3E4565",
"r c #411C45",
"t c #697996",
"y c #1C2329",
"u c #2B1646",
"i c #20295C",
"p c #4A365B",
/* pixels */
"&w-::<<::32oooooooooooooooooooooooooooooooooooooooooo23::<<::-w&",
"&we7777*7>p5r,oo=222222222222222222222222222222=oo,r5p>777777ew&",
"&yO44444446t7p,=u%%%%%%%%%%%%%%%%%%%%%%%%%%%%%%u=,p7t64444444Oy&",
"&;q..$$$+$.017rX%99@@@@@@@@@@@@@@@@@@@@@@@@@@99%Xr710.$+$$$..q;&",
"&;q.$++++$$+0t5X%9@@@@@@@@@@@@@@@@@@@@@@@@@@@@9%X5t0+$$++++$.q;&",
"&;8$$++++++$.65=%@@                          @@%=56.$++++++$$8;&",
"&;8$$++++++$.65=%@@                          @@%=56.$++++++$$8;&",
"&;8$$++++++$$65=%@@                          @@%=56$$++++++$$8;&",
"&;8$$++++++$$65=%@@                          @@%=56$$++++++$$8;&",
"&;8$$++++++$$65=%@@                          @@%=56$$++++++$$8;&",
"&;8$$++++++$$65=%@@                          @@%=56$$++++++$$8;&",
"&;q.$++++++$$65=%@@                          @@%=56$$++++++$.q;&",
"&;q.$++++++$$65=%@@                          @@%=56$$++++++$.q;&",
"&;#0+$++++$..65=%9@@@@@@@@@@@@@@@@@@@@@@@@@@@@9%=56..$++++$+0#y&",
"&w>10$$$$$$..65=%99@@@@@@@@@@@@@@@@@@@@@@@@@@99%=56..$$$$$$01>w&",
"&we#144444666Or=u%%%%%%%%%%%%%%%%%%%%%%%%%%%%%%u=rO666444441#ew&",
"&w3:**777>p55roo=XXXXXXXXXXXX222222XXXXXXXXXXXX=oor55p>777**:3w&",
"&we77*::<3r,,,r,,,,,,,2XXXX22=oooo=22XXX22,,,,,,,r,,,r3<::*77ew&",
"&yO441#:<3e>>>>>>>>>>e %%%%%%u=oo=u%%%%%% e>>>>>>>>>>e3<:#144Oy&",
"&;q..01O<<*##########7<i @@99%2oo2%99@@ i<7##########*<<O10..q;&",
"&;q..+0t:3*##########7<i @@@9%2oo2%9@@@ i<*##########*3:t0+..q;&",
"&;8$$$.1:3*##OOOOOO##*<--  @@%2oo2%@@  --<*##OOOOOO##*3:1$$$$8;&",
"&;8$$$$1:3*##OOOOOO##*<--  @@%2oo2%@@  --<*##OOOOOO##*3:1$$$$8;&",
"&;8$$$$1:3*##OOOOOO##*<--  @@%2oo2%@@  --<*##OOOOOO##*3:1$$$$8;&",
"&;8$$$$1:3*##OOOOOO##*<--  @@%2oo2%@@  --<*##OOOOOO##*3:1$$$$8;&",
"&;8$$$$1:3*##OOOOOO##*<--  @@%2oo2%@@  --<*##OOOOOO##*3:1$$$$8;&",
"&;8$$$$1:3*##OOOOOO##*<--  @@%2oo2%@@  --<*##OOOOOO##*3:1$$$$8;&",
"&;q.$$$1:3*##OOOOOO##*<--  @@%2oo2%@@  --<*##OOOOOO##*3:1$$$.q;&",
"&;q.$$$1:3*##OOOOOO##*<--  @@%2oo2%@@  --<*##OOOOOO##*3:1$$$.q;&",
"&;#0+$.1:3*##########*<i @@@9%2oo2%9@@@ i<*##########*3:1.$+0#y&",
"&w>10..1:3*##########7<i @@99%2oo2%99@@ i<7##########*3:1..01>w&",
"&we#144t:3e>>>>>>>>>>e %%%%%%u=oo=u%%%%%%3e>>>>>>>>>>e3:t441#ew&",
"&w3:****<3r,,,,,,,r,r,2XXXX22=oooo=22XXXX2,r,,,,,,,,,r3:****:3w&",
"&we77**77>p5r,oo=XXX=22XXXXXX222222XXXXX2XXXXXX=oo,r5p>77**77ew&",
"&yO44444446t7p,=u%%%%%%%%%%%%%%%%%%%%%%%%%%%%%%u=,p7t64444444Oy&",
"&;q..$+$$$.017rX%99@@@@@@@@@@@@@@@@@@@@@@@@@@99%Xr710.$$$+$..q;&",
"&;q.$++++$$+0t5X%9@@@@@@@@@@@@@@@@@@@@@@@@@@@@9%X5t0+$$++++$.q;&",
"&;8$$++++++$.65=%@@                          @@%=56.$++++++$$8;&",
"&;8$$++++++$.65=%@@                          @@%=56.$++++++$$8;&",
"&;8$$++++++$$65=%@@                          @@%=56$$++++++$$8;&",
"&;8$$++++++$$65=%@@                          @@%=56$$++++++$$8;&",
"&;8$$++++++$$65=%@@                          @@%=56$$++++++$$8;&",
"&;8$$++++++$$65=%@@                          @@%=56$$++++++$$8;&",
"&;q.$++++++$$65=%@@                          @@%=56$$++++++$.q;&",
"&;q.$++++++$$65=%@@                          @@%=56$$++++++$.q;&",
"&;#0+$++++$..65=%9@@@@@@@@@@@@@@@@@@@@@@@@@@@@9%=56..$++++$+0#y&",
"&w>10$$$$$$..65=%99@@@@@@@@@@@@@@@@@@@@@@@@@@99%=56..$$$$$$01>w&",
"&we#144444666Or=u%%%%%%%%%%%%%%%%%%%%%%%%%%%%%%u=rO666444441#ew&",
"&w3:**777>p55roo=XXXXXXXXXXXX222222XXXXXXXXXXXX=oor55p>777**:3w&",
"&we77*::<3r,,,r,,,,,,,2XXXX22=oooo=22XXX22,,,,,,,r,,,r3<::*77ew&",
"&yO441#:<3e>>>>>>>>>>e %%%%%%u=oo=u%%%%%% e>>>>>>>>>>e3<:#144Oy&",
"&;q..01O<<*##########7<i @@99%2oo2%99@@ i<7##########*<<O10..q;&",
"&;q..+0t:3*##########7<i @@@9%2oo2%9@@@ i<*##########*3:t0+..q;&",
"&;8$$$.1:3*##OOOOOO##*<--  @@%2oo2%@@  --<*##OOOOOO##*3:1$$$$8;&",
"&;8$$$$1:3*##OOOOOO##*<--  @@%2oo2%@@  --<*##OOOOOO##*3:1$$$$8;&",
"&;8$$$$1:3*##OOOOOO##*<--  @@%2oo2%@@  --<*##OOOOOO##*3:1$$$$8;&",
"&;8$$$$1:3*##OOOOOO##*<--  @@%2oo2%@@  --<*##OOOOOO##*3:1$$$$8;&",
"&;8$$$$1:3*##OOOOOO##*<--  @@%2oo2%@@  --<*##OOOOOO##*3:1$$$$8;&",
"&;8$$$$1:3*##OOOOOO##*<--  @@%2oo2%@@  --<*##OOOOOO##*3:1$$$$8;&",
"&;q.$$$1:3*##OOOOOO##*<--  @@%2oo2%@@  --<*##OOOOOO##*3:1$$$.q;&",
"&;q.$$$1:3*##OOOOOO##*<--  @@%2oo2%@@  --<*##OOOOOO##*3:1$$$.q;&",
"&y#0+$$1:3*##OOOOOO##*<--  @@%2oo2%@@  --<*##OOOOOO##*3:1$$+0#y&",
"&w>10$$1:3*##OOOOOO##*<--  @@%2oo2%@@  --<*##OOOOOO##*3:1$$01>w&",
"&wet0$$1:3*##OOOOOO##*<--  @@%2oo2%@@  --<*##OOOOOO##*3:1$$0tew&"
};
