/* XPM */
static char *_8e7cecf4b0d49aab4a504f81ddffa4bXAYGI68ypwW694lq[] = {
/* columns rows colors chars-per-pixel */
"64 64 4 1 ",
"  c #212A5C",
". c #330937",
"X c #271F50",
"o c #39002A",
/* pixels */
"oooooooooooooooooooooooooooooooooooooooooooooooooooooooooooooooo",
"...............ooo.............................ooo..............",
"XXXXXXXXXXXXXXooo.XXXXXXXXXXXXXXXXXXXXXXXXXXXXooo.XXXXXXXXXXXXXX",
"             X.oo.X                          X.oo.X             ",
"             X.oo.X                          X.oo.X             ",
"             X.oo.X                          X.oo.X             ",
"             X.oo.X                          X.oo.X             ",
"             X.oo.X                          X.oo.X             ",
"             X.oo.X                          X.oo.X             ",
"             X.oo.X                          X.oo.X             ",
"             X.oo.X                          X.oo.X             ",
"             X.oo.X                          X.oo.X             ",
"             X.oo.X                          X.oo.X             ",
"             X.oo.X                          X.oo.X             ",
"             X.oo.X                          X.oo.X             ",
"             X.oo.XXXXXXXXXXXXXXXXXXXXXXXXXXXX.oo.XXXX          ",
"             X.ooo............................oooo....X         ",
"              ................oooo...................XX         ",
"              XXXXXXXXXXXXXXXX.oo.XXXXXXXXXXXXXXXXXXXX          ",
"                             X.oo.X                             ",
"                             X.oo.X                             ",
"                             X.oo.X                             ",
"                             X.oo.X                             ",
"                             X.oo.X                             ",
"                             X.oo.X                             ",
"                             X.oo.X                             ",
"                             X.oo.X                             ",
"                             X.oo.X                             ",
"                             X.oo.X                             ",
"                             X.oo.X                             ",
"                             X.oo.X                             ",
"          XXXXXXXXXXXXXXXXXXXX.oo.XXXXXXXXXXXXXXXX              ",
"         X....................oooo................X             ",
"          ....oooo............................ooo.X             ",
"          XXXX.oo.XXXXXXXXXXXXXXXXXXXXXXXXXXXX.oo.X             ",
"             X.oo.X                          X.oo.X             ",
"             X.oo.X                          X.oo.X             ",
"             X.oo.X                          X.oo.X             ",
"             X.oo.X                          X.oo.X             ",
"             X.oo.X                          X.oo.X             ",
"             X.oo.X                          X.oo.X             ",
"             X.oo.X                          X.oo.X             ",
"             X.oo.X                          X.oo.X             ",
"             X.oo.X                          X.oo.X             ",
"             X.oo.X                          X.oo.X             ",
"             X.oo.X                          X.oo.X             ",
"             X.oo.X                          X.oo.X             ",
"XXXXXXXXXXXXXX.oo.XXXXXXXXXXXXXXXXXXXXXXXXXXXX.oo.XXXXXXXXXXXXXX",
"..............oooo............................oooo..............",
"..............................oooo..............................",
"XXXXXXXXXXXXXXXXXXXXXXXXXXXXXX.oo.XXXXXXXXXXXXXXXXXXXXXXXXXXXXXX",
"                             X.oo.X                             ",
"                             X.oo.X                             ",
"                             X.oo.X                             ",
"                             X.oo.X                             ",
"                             X.oo.X                             ",
"                             X.oo.X                             ",
"                             X.oo.X                             ",
"                             X.oo.X                             ",
"                             X.oo.X                             ",
"                             X.oo.X                             ",
"                             X.oo.X                             ",
"                             X.oo.X                             ",
"                             X.oo.X                             "
};
