/* XPM */
static char *eefdb80d57f14ee3df2359a338da71807WT7oJ5UU6CtKuMu[] = {
/* columns rows colors chars-per-pixel */
"64 64 7 1 ",
"  c #3A4556",
". c #35243C",
"X c #424A5A",
"o c #4B5765",
"O c #38394D",
"+ c #321832",
"@ c #3A4657",
/* pixels */
"oooooooooooooooooooooooooooooX..XooooooooooooooooooooooooooooX.+",
"oooooooooooooooooooooooooooooX..XooooooooooooooooooooooooooooX.+",
"ooXXXXXXXXXXXXXXXXXXXXXXXXXXXO..XoXXXXXXXXXXXXXXXXXXXXXXXXXXX .+",
"ooX   @@ @@ @@ @@ @@ @@ @@@@@O..XoX  @@@ @@ @@ @@ @@ @@ @@@@ O.+",
"ooX                         @O..XoX                         @O.+",
"ooX                        @@O..XoX                        @@O.+",
"ooX                        @@O..XoX                        @@O.+",
"ooX                        @@O..XoX                        @@O.+",
"ooX                        @@O..XoX                        @@O.+",
"ooX                        @@O..XoX                        @@O.+",
"ooX                        @@O..XoX                        @@O.+",
"ooX                        @@O..XoX                        @@O.+",
"ooX                        @@O..XoX                        @@O.+",
"ooX                        @@O..XoX                        @@O.+",
"ooX                        @@O..XoX                        @@O.+",
"ooX                        @@O..XoX                        @@O.+",
"ooX                        @@O..XoX                        @@O.+",
"ooX                        @@O..XoX                        @@O.+",
"ooX                        @@O..XoX                        @@O.+",
"ooX                        @@O..XoX                        @@O.+",
"ooX                        @@O..XoX                        @@O.+",
"ooX                        @@O..XoX                        @@O.+",
"ooX                        @@O..XoX                        @@O.+",
"ooX                        @@O..XoX                        @@O.+",
"ooX                        @@O..XoX                        @@O.+",
"ooX                        @@O..XoX                        @@O.+",
"ooX                        @@O..XoX                        @@O.+",
"ooX  @@@@@@@@@@@@@@@@@@@@@@@@O..XoX  @@@@@@@@@@@@@@@@@@@@@@@@O.+",
"ooX @@@@@@@@@@@@@@@@@@@@@@@@@O..XoX @@@@@@@@@@@@@@@@@@@@@@@@@O.+",
"XXOOOOOOOOOOOOOOOOOOOOOOOOOOOO..OXOOOOOOOOOOOOOOOOOOOOOOOOOOOO.+",
".............................+++.............................+++",
"...............................+...............................+",
"XXXXXXXXXXXXXXXXXXXXXXXXXXXXX ..OXXXXXXXXXXXXXXXXXXXXXXXXXXXX .+",
"oooooooooooooooooooooooooooooX..XooooooooooooooooooooooooooooX.+",
"oooXXXXXXXXXXXXXXXXXXXXXXXXXXO..XoXXXXXXXXXXXXXXXXXXXXXXXXXXX .+",
"oo@   @ @ @ @ @ @ @ @ @ @ @@@O..XoX  @                 @@@@@ O.+",
"ooX                         @O..XoX                         @O.+",
"ooX                        @@O..XoX                        @@O.+",
"ooX                        @@O..XoX                        @@O.+",
"ooX                        @@O..XoX                        @@O.+",
"ooX                        @@O..XoX                        @@O.+",
"ooX                        @@O..XoX                        @@O.+",
"ooX                        @@O..XoX                        @@O.+",
"ooX                        @@O..XoX                        @@O.+",
"ooX                        @@O..XoX                        @@O.+",
"ooX                        @@O..XoX                        @@O.+",
"ooX                        @@O..XoX                        @@O.+",
"ooX                        @@O..XoX                        @@O.+",
"ooX                        @@O..XoX                        @@O.+",
"ooX                        @@O..XoX                        @@O.+",
"ooX                        @@O..XoX                        @@O.+",
"ooX                        @@O..XoX                        @@O.+",
"ooX                        @@O..XoX                        @@O.+",
"ooX                        @@O..XoX                        @@O.+",
"ooX                        @@O..XoX                        @@O.+",
"ooX                        @@O..XoX                        @@O.+",
"ooX                        @@O..XoX                        @@O.+",
"ooX                        @@O..XoX                        @@O.+",
"ooX                        @@O..XoX                        @@O.+",
"ooX  @@@@@@@@@@@@@@@@@@@@@@@@O..XoX  @@@@@@@@@@@@@@@@@@@@@@@@O.+",
"ooX @@@@@@@@@@@@@@@@@@@@@@@@@O..XoX @@@@@@@@@@@@@@@@@@@@@@@@@O.+",
"XXOOOOOOOOOOOOOOOOOOOOOOOOOOOO..OXOOOOOOOOOOOOOOOOOOOOOOOOOOOO.+",
".............................+++.............................+++",
"++++++++++++++++++++++++++++++++++++++++++++++++++++++++++++++++"
};
