/* XPM */
static char *_52e26807f384d9ead238e2747bc3c80pgzbySiumS6i0xF2[] = {
/* columns rows colors chars-per-pixel */
"64 64 92 1 ",
"  c #22260E",
". c #21250E",
"X c #20230D",
"o c #1F220C",
"O c #2A2D12",
"+ c #2D3114",
"@ c #2E3215",
"# c #323618",
"$ c #333719",
"% c #303417",
"& c #2A2E13",
"* c #252910",
"= c #23270F",
"- c #2E3214",
"; c #303416",
": c #313518",
"> c #2C3015",
", c #282C12",
"< c #24280F",
"1 c #313517",
"2 c #2D3115",
"3 c #20230C",
"4 c #1F230C",
"5 c #21240D",
"6 c #292D12",
"7 c #2F3315",
"8 c #2E3216",
"9 c #262A10",
"0 c #23270E",
"q c #25290F",
"w c #2C3014",
"e c #242810",
"r c #272B11",
"t c #262A11",
"y c #282C11",
"u c #282D12",
"i c #20240D",
"p c #2A2E12",
"a c #2C3013",
"s c #2B2F13",
"d c #22250E",
"f c #2A2F13",
"g c #292C12",
"h c #21250D",
"j c #23260E",
"k c #2F3316",
"l c #282B11",
"z c #2B2F14",
"x c #24270F",
"c c #1F210C",
"v c #34381A",
"b c #343819",
"n c #272C12",
"m c #272B12",
"M c #2A2E14",
"N c #262911",
"B c #262B11",
"V c #323619",
"C c #33381A",
"Z c #33371A",
"A c #34381B",
"S c #32371A",
"D c #2F3317",
"F c #23260F",
"G c #363A1C",
"H c #383D1E",
"J c #393E1F",
"K c #393E1E",
"L c #373C1D",
"P c #35391A",
"I c #35391B",
"U c #383C1D",
"Y c #272A11",
"T c #333819",
"R c #363B1C",
"E c #383E1E",
"W c #272A10",
"Q c #373B1D",
"! c #353A1C",
"~ c #34391B",
"^ c #323719",
"/ c #292C11",
"( c #353A1B",
") c #34391A",
"_ c #2F3416",
"` c #292D13",
"' c #2F3216",
"] c #1E210C",
"[ c #252810",
"{ c #2F3215",
"} c #2B2E13",
"| c white",
/* pixels */
" .Xoooooooooooooooooooooooooooooo O++@#$$$$$$$$%&*=             ",
" .Xoooooooooooooooooooooooooooooo O-@;#$$$$$$$$:>,<             ",
" .Xoooooooooooooooooooooooooooooo O@1#$$$$$$$$$$:2*             ",
" .3o4X555555555555555555X3ooooooo 67#$###########89 0<<qqqqqqqqq",
" .345 <****************< 54oooooo 67##;@@@@@@@@77w*0er6&&&&&&&&&",
" .3X <ty,6666666666uyrr9=.i3ooooo 67##@++++++++++p<=rpw+++waaaaa",
" .35<tr,sawaaaawwwws,rr9= d53oooo 67##@++++++++++p<<6w+++wp66666",
".545*rr,sas&&fs&pppg9**< h.53oooo 67##7++++++++++p<<6w++w&yrrrrr",
"34o5*rrr,y9qq**<j  dh555X3X3ooooo 67##7++++++++++&q=rpwwpyrrrrrr",
"ooo5*rrr9*0    h4oooooooooooooooo Ok##7++++++++++p< <yaa6rrrrr99",
"ooo5*rr9<0     h3oooooooooooooooo Ok##7++++++++++pji 9sw6rrrrt<=",
"ooo5*rr9=      .3oooooooooooooooody@##7+++++++++w,doi=lg9****< h",
"ooo5*rr9=      .3oooooooooooooooo59z:#7++++++++wp95ooidd555555X3",
"oooix9r9=     d53ooooooooooooooooi<,8%@+++++++w&r<5ooooo433334oo",
"ooooXj99=    di4oooooooooooooooooX *,s+++++++wpr* Xoooo45....54o",
"oooocXx< hhhhiooo3333333333334ooooi x96&&ppOOg9< 54oooo45hhhh54o",
"oooocoX5X3334oooihhhhhhhhhhhhiooooo3Xhxq*<j  d5iX4ooooooo4444ooo",
"x=j  d5iXXi5d  j<**qqqqqqqq**<j    j===0 h4oooo333333X55d       ",
"82sOOg9x  <9,OOpp&&&&&&&&&&&&ppOOO6s2>,<0h4ooo5h.h.hh <9gOOOOOOO",
"v#7++wpr<<rpw++++++++++++++++++++++k#:zr< Xo4id     =qrpw+++++++",
"b#7+++w&rr&w+++++++++++++++++++++++7##@&r<i45d     =*r&w++++++++",
"#%@++++a,,a+++++aaaaaaaaaasa+++++++@11@a6*53h      =96a+++assa++",
"@@+++++a,,a++++wp,,66666,,,6a+++++++@@-a6*53h      =96a++ap,,pw+",
"+++++++s,,s+++w&r9999999rry6a++++++++++a6*53h      0*ys++a,rr,&a",
"+++++++s,,s++wpr<======<9,&a+++++++++++a6*53h       09s++a,rrr,,",
"aa+++++srrs++sy*0      0*ys+++++aa+++++sy<i45d       q&++a,rrrrr",
",pa++++s**s++s90        09s++++a66a++++s9 Xo4id      q&++a,rrrrr",
"r,a+++w6<<6w+&q          q&+++w&y,a+++w6<h3oo45..hh. <6w+a6rrrrr",
"r,a++wpr==r&wsq          qs--wp,r,a++wpr<h3ooo43333i.<rpwa6rrrrr",
"9r6&p6r<  <rp6<.         <y&&6r99r6&p6r<0h4oo444444Xh0<r66r99999",
"==<<<<=    <rr=..d  dd    <<<<====<<<<=  5ooih5555hh.  =<<======",
"  <**trnnmm,MM,mnmttmmttttt9*<    <**trnnrNNmnnnnmBBmmttttt* hhh",
" <ys@%VCCZZCAACZCV%%VV%kkkk@sy<. <ys@%VCCZSSZCCCCV%%VV%kkkDzFo43",
" *s%$GHJJKJJKKJJJLPILUI$$bb#ksr< *s%$GHJJKJJJJJJJLPILUI$$vvDY54o",
" 9@TRUHEEEKKKKKJJLPPLLI$$bb#7+sy<9@TRUHEEEKKKKKJJLPPLLI$$bv:wWho",
".tkILHLLLQG!!!!!!~^^~I$:%%%k+a+&<9kILHLLLQG!!!!!!~^^~I$:%%%k2/do",
".tkILL(v)$1;;;;;;_77__k2s&&`6pw&<9kILL(v)$1;;;;;;_77__k2s&&&695o",
" tkILL)$#%@++++++++++wa&yrrrr,s6<9kILL)$#%@++++++++++wa&yrrrr*5o",
" tkILL)#k@+++++++++++a6yrrrrrr,r=tkILL)#k@+++++++++++a6yrrrrr*5o",
"5*8ILQT%@++++++++++++a,rrrrrrrr* *'ILQT%@++++++++++++a,rrrrrr*5o",
"o<8ILR1@+++++++++++++a,rrrrrrrr*5<8ILR1@+++++++++++++a,rrrrrr*5o",
"]x8PR~_++++++++++++++a,rrrrrrrr[ix8PR~_++++++++++++++a,rrrrrr*5o",
"]x8v)^7++++++++++++++a,rrrrrrrr[ix8v)^7++++++++++++++a,rrrrrr*5o",
"]Fw:$#{++++++++++++++a,rrrrrrrr*5Fw:$#{++++++++++++++a,rrrrrr*5o",
"o.r2:#7++++++++++++++a,rrrrrrrr*5hr2:#7++++++++++++++a,rrrrrr*5o",
"oix,8%@++++++++++++++wp,rrrrrrt<iXx,8%@++++++++++++++wp,rrrrr*5o",
"oX *,s++++++++++++++++ws,rrrrt< XX *,s++++++++++++++++ws,rrrr*5o",
"ooi x96&&sssssssssssssapr****< iooi x96&&sssssssssssssapr****=Xo",
"coo3Xhxqq9r,,,,,,,,,,,,r< 5iiX3oooo3Xhxqq9r,,,,,,,,,,,,r< 5iiXoo",
"x=jj===  =r6`&&&&&&&&&&6r*<xx=jj==jj===  =r6`&&&&&&&&&&6r*<xx=j ",
"82}}2>,< <6+k%%%%%%%%%%%kk8882}}22}}2>,< <6+k%%%%%%%%%%%kk8882}6",
"v#77#:zr<9w;#$$$$$$$$$$$bbbvv#77##77#:zr<9w;#$$$$$$$$$$$bbbvv#7+",
"b#77##@pr,k#$$$$$$$$$$$$$bbbv#77##77##@pr,k#$$$$$$$$$$$$$bbbv#7+",
"#%@@%1@s,&%$$$$$$$$$###:%%%%%k@@1%@@%1@s,&%$$$$$$$$$###:%%%%%k@+",
"@@++@@-s,&%$$$$$$$$#;@72s&&&&sw-@@++@@-s,&%$$$$$$$$#;@72s&&&&sw+",
"+++++++s,`k#$$$$###%@wa&yrrrry&a+++++++s,`k#$$$$###%@wa&yrrrry&a",
"+++++++s,6w;#$$#;@@@+a6yrrrrrrypa++++++s,6w;#$$#;@@@+a6yrrrrrr,,",
"aa+++++srrs7#$$#@++++a,rrrrrrrry&w+++++srrs7#$$#@++++a,rrrrrrrrr",
",pa++++s**&7#$$#@++++a,rrrrrrrrrypa++++s**&7#$$#@++++a,rrrrrrrrr",
"r,a+++w6<<y+:b$#7++++a6rrrrrrrrrr,a+++w6<<y+:b$#7++++a6rrrrrrrrr",
"r,a++wpr= <,%vb#7++++a6rrrrrrrrrr6a++wpr= <,%vb#7++++a6rrrrrrrrr",
"9r6&&6r*0 .*wD%k+ssaa&r9999999999r6&&6r*0 .*wD%k+ssaa&r999999999",
"=<<qq<=0   =*r6&6,,,6r<==========<<qq<=0   =*r6&6,,,6r<=========",
"            .0*rrrrrr9=                     .0*rrrrrr9=         "
};
