/* XPM */
static char *_bce2194063d4429e7b4e40fb6f24e57Fa9cwMWPL6nrPcQp[] = {
/* columns rows colors chars-per-pixel */
"64 64 124 2 ",
"   c #3F2609",
".  c #372615",
"X  c #382716",
"o  c #3D2A17",
"O  c #362719",
"+  c #36291D",
"@  c #3E2D1D",
"#  c #342B26",
"$  c #342C29",
"%  c #3D3026",
"&  c #322F34",
"*  c #343135",
"=  c #373439",
"-  c #39363B",
";  c #3D3A3E",
":  c #44290D",
">  c #4B2D0D",
",  c #52310F",
"<  c #462E15",
"1  c #4A2F12",
"2  c #432F19",
"3  c #473017",
"4  c #493016",
"5  c #46321B",
"6  c #48321B",
"7  c #543413",
"8  c #5A3613",
"9  c #5E3916",
"0  c #613B17",
"q  c #653E18",
"w  c #683F19",
"e  c #463525",
"r  c #493623",
"t  c #4A3826",
"y  c #42352B",
"u  c #45382E",
"i  c #4B3A2A",
"p  c #463A33",
"a  c #4B3E32",
"s  c #6D431C",
"d  c #71451E",
"f  c #74481F",
"g  c #4F4031",
"h  c #4E4239",
"j  c #514234",
"k  c #5A4937",
"l  c #544639",
"z  c #56493D",
"x  c #5B4A39",
"c  c #764920",
"v  c #7B4D22",
"b  c #3F3B40",
"n  c #413E43",
"m  c #454246",
"M  c #4D4542",
"N  c #474348",
"B  c #49464A",
"V  c #4D4A4E",
"C  c #544A43",
"Z  c #5A4D43",
"A  c #524C4D",
"S  c #584F49",
"D  c #5B5047",
"F  c #5C524B",
"G  c #4E4B50",
"H  c #524E52",
"J  c #565255",
"K  c #5A5454",
"L  c #5E5857",
"P  c #575358",
"I  c #5A565A",
"U  c #5D595C",
"Y  c #60564E",
"T  c #615750",
"R  c #635A55",
"E  c #635D5C",
"W  c #6D6054",
"Q  c #66605F",
"!  c #69615E",
"~  c #5F5B60",
"^  c #625E61",
"/  c #656164",
"(  c #6A6464",
")  c #6E6867",
"_  c #676368",
"`  c #6A6669",
"'  c #6E696C",
"]  c #716C6E",
"[  c #7E756E",
"{  c #726E71",
"}  c #767274",
"|  c #797476",
" . c #7B7679",
".. c #7E797B",
"X. c #804F25",
"o. c #815025",
"O. c #875428",
"+. c #8B572A",
"@. c #8C572A",
"#. c #8C582A",
"$. c #8C582B",
"%. c #807B7D",
"&. c #827D7F",
"*. c #837E81",
"=. c #847F81",
"-. c #858082",
";. c #878385",
":. c #888485",
">. c #8B8789",
",. c #8C8789",
"<. c #8D898B",
"1. c #8F8B8D",
"2. c #928E8F",
"3. c #938F91",
"4. c #959092",
"5. c #979395",
"6. c #979495",
"7. c #999597",
"8. c #9A9798",
"9. c #9B9899",
"0. c #9D9A9B",
"q. c #9E9B9C",
"w. c #9F9C9E",
"e. c #A09C9E",
/* pixels */
"..1.e.e.e.e.e.e.e.e.e.e.e.e.e.e.e.e.e.e.0.4.,.=.;.8.e.e.e.e.e.e.e.e.e.e.e.e.e.e.e.e.e.e.e.e.e.e.e.e.e.e.e.e.e.e.e.e.e.e.e.e.2...",
"..%.5.e.e.e.e.e.e.e.e.e.e.e.e.e.e.e.e.e.e.e.e.0.0.q.q.q.q.q.q.q.q.q.q.q.q.q.q.e.e.e.e.e.e.e.e.e.e.e.e.e.e.e.e.e.e.e.e.e.e.8.&...",
"&. .&.7.e.w.w.w.w.w.w.w.w.w.w.w.e.e.e.e.e.e.e.e.e.[ k x x x x x x x x x x k W 0.e.e.e.e.e.e.e.e.e.w.w.w.w.w.w.w.w.w.w.e.q.:. .} ",
";... .-.9.w.w.w.w.w.w.w.w.w.w.q.q.q.q.0.0.0.9.9.0.[ : s s s s s s s s s s > Z 3.4.4.6.7.8.9.0.0.q.q.w.w.w.w.w.w.w.w.w.w.2...} / ",
":.-... .;.3.2.2.1.1.<.<.>.:.:.;.;.-.=.*.&.&.&.....} 6 v #.#.#.#.#.#.#.#.+.7 R  . . .......%.&.*.-.;.:.>.<.1.2.3.4.5.7.4...} ( / ",
";.;.*. .| | | | | | | | | | | | | | | | | | | | | | j s #.+.+.+.+.+.+.#.v 6 ]  .| | | | | | | | | | | | | | |  . . ... .} ` ^ ^ ",
";.;.;...| | | | | | | | | | | | | | | | | | | | |  .F 7 +.+.+.+.+.+.+.#.s i | | | | | | | | | | | | | | | | | | | | | | ) ^ ^ ^ ",
"-.-.-.-. .} | | | | | | | | | | | | | | | | | | | } ( 4 o.@.+.+.+.+.+.+.7 F } } | | | | | | | | | | | | | | | | | | | ] ^ E E ^ ",
"-.-.-.-. .} } | | | | | | | | | | | | | | | } ( z j ] t d #.+.+.@.+.@.o.4 ( z t F ] | | | | | | | | | | | | | | } } } / E E E E ",
"=.=.=.*.| } } } } } } ] ] | } } } } } } | ) l 4 7 1 ( z 9 @.+.+.@.+.#.d r ] r 8 7 6 F ] | } } } } } | ] ] | } } } } { ^ U E E E ",
"*.*.*.&.} } } } } } } Z 5 ! | } } } } } Y 6 8 v +.8 D E 4 O.#.#.#.#.#.9 z ( 4 o.+.d 7 i ! } } } } | ) t j } } } } } { ^ U U U U ",
"&.&.&.%.} { } } } } E 1 9 5 E } } } ] l 1 d +.#.#.s i ] 6 s d s s s d 1 R F 8 +.+.#.O.q 3 Y } } } ( r 8 1 F } } } { ] E U U U U ",
"&.&.&...{ { } } } ] r s +.s 3 R } ] i 7 o.#.+.#.+.d < ) l 5 i i i i t i ) i 8 o.@.+.+.#.d : F } ! 6 0 +.d 5 ( } } { ] E L U L U ",
"%.%.%...{ { } } } z 7 +.@.+.s < T ] t 7 O.#.@.v 8 4 j ] ] ) ) ) { ) ) ] } Y t 4 q O.#.+.0 5 ! E 5 q +.@.+.9 i ] } { ] U L L L L ",
"...... .] { } } R 1 v #.+.+.@.d 1 F ) i 7 o.s 1 l ( ) F j t 2 j ) r 6 i z R ) E i 4 f 9 r ( R 5 s +.+.+.@.o.4 F } ] ' U I I I I ",
"......| ] ] } ) r s #.+.+.+.+.#.c 1 D ) j : r E ) z 6 7 q f 0 i ) < d d 9 4 r F ) D < t ) T < s +.+.+.+.+.#.c 5 ! ] ' U I I I I ",
"......} ' ] ] j 7 +.#.+.+.+.+.+.#.v 1 Z ) D ( R 5 7 v +.#.#.s i ( 4 o.#.@.O.s 4 i ( ! ) F < d +.+.+.+.+.+.#.#.0 i ` ) L I I I I ",
"......} ' ] ( r > q v +.#.#.+.+.+.#.v : D } F 1 s +.#.+.+.#.s i ( 4 o.@.+.+.#.O.9 5 ! ) 2 s #.+.+.+.@.#.+.v s 4 2 R ' I K K K K ",
" . . .{ ) ' ] ) F g 6 7 s v +.#.@.#.v 1 R T 1 c #.+.+.+.+.#.s i ( 4 o.@.+.+.+.@.+.q r ( z 7 +.#.#.+.o.s 7 4 i F ( ` ` I K K K K ",
" . . .{ ` ` ] { { { ( F i 4 7 s o.+.8 l ( 5 s #.+.+.+.+.+.#.s i ( 4 o.@.+.+.+.+.+.+.8 j ) r s o.s 8 1 i Z ( ] { ] ) ` I J J J J ",
" . . .| ' ` ' { ] ] { { ] ( D i 4 7 < ! l 8 +.+.+.+.+.+.+.#.s i ( 4 o.@.+.+.+.+.+.#.o.1 R F : 1 r Z Q ) { { ] ] ] ` ` I J J J J ",
"| | |  .{ ` ) { ] ] ] { T j R ) Q C Z ( 5 v #.+.+.+.+.+.+.#.s i ( 4 o.@.+.+.+.+.+.+.#.q i ( Z E ) E l i ( { ] ] ' ` / K J J J J ",
"| | | | ] ` ) ] ] ] ] ] j > 4 6 l E ] F 7 +.+.+.+.+.+.+.+.#.s i ( 4 o.@.+.+.+.+.+.+.#.v 6 ( ( z r 1 9 > K { ] ] ' ` / J J J K ^ ",
"} } } } ' _ ` ' ' ' ' ) r d O.c 8 2 ( j q #.+.+.+.+.+.+.+.#.s i / 4 o.@.+.+.+.+.+.+.+.+.7 K Z : d O.#.9 l ] ' ' ' ( / J J J ^ ( ",
"} } } } ' / ` ' ' ' ' ( 6 v #.#.v 6 ( t d #.+.+.+.+.+.+.+.#.s i / 4 o.@.+.+.+.+.+.+.+.@.9 C T 4 +.@.#.s i ' ' ' ' _ / J H H I / ",
"} } } } ` / ` ' ' ' ' E 4 o.@.#.f r ( 6 v #.+.+.+.+.+.+.+.#.s i Q 4 o.@.+.+.+.+.+.+.+.#.q j E 4 O.+.#.d r ) ' ' ) / ^ J H H J U ",
"} } } } ` / ` ' ' ' ' E 4 O.#.#.d t / 6 v #.+.+.+.+.+.+.+.#.s i Q 4 o.@.+.+.+.+.+.+.+.#.s i Q 4 o.#.#.c 6 ( ' ' ) / ^ J H H H J ",
"{ { { { ( / ` ' ' ' ' R 1 v o.o.q i Q 4 X.@.+.+.+.+.+.+.+.#.s i Q 4 o.@.+.+.+.+.+.+.+.#.s i Q < c o.o.d 5 ( ' ' ' / ^ H H H H H ",
"{ { { { / ^ ` ) ) ) ' E 2 3 4 4 < g E 4 X.@.+.+.+.+.+.+.+.#.s i E 4 o.@.+.+.+.+.+.+.+.#.s i / 5 < 4 4 < r ( ' ) ` / E H A A A A ",
"{ { { { / ^ ` ) ` ` ` ` Q E E E E ( E 4 X.@.+.+.+.+.+.+.+.#.s i E 4 o.@.+.+.+.+.+.+.+.#.s i ` / E E E E / ` ` ` ` ^ U H V V V V ",
"{ { { { ^ ^ ` R i i i i i i i i i C E 4 X.@.+.+.+.+.+.+.+.#.s i E 4 o.@.+.+.+.+.+.+.+.#.s i / a i i i i i i i i R ^ U H V V V V ",
"] ] { ' ^ ^ ` D > s s s s s s s 8 t E 4 X.@.+.+.+.+.+.+.+.#.s i E 4 o.@.+.+.+.+.+.+.+.#.s i E 1 q s s s s s s > D ^ U A V V V V ",
"' ' ' ' ^ ^ ` D 7 +.#.#.#.#.#.#.s i E 4 X.@.+.+.+.+.+.+.+.#.s i E 4 o.@.+.+.+.+.+.+.+.#.s i E 4 o.#.#.#.#.#.+.7 D ^ L V V V V V ",
"' ' ' ` U / ` D 7 +.+.+.+.+.+.#.s i E 4 X.@.+.+.+.+.+.+.+.#.s i E 4 o.@.+.+.+.+.+.+.+.#.s i E 4 o.@.+.+.+.+.+.7 D ^ I V V V V V ",
"' ' ` U U ( ` S 7 +.+.+.+.+.+.#.s i E 4 X.@.+.+.+.+.+.+.+.#.s i E 4 o.@.+.+.+.+.+.+.+.#.s i E 4 o.@.+.+.+.+.+.7 D ~ I V B B B B ",
"' ' ^ I ^ ` ` S 7 +.+.+.+.+.+.#.s i E 4 X.@.+.+.+.+.+.+.+.#.s i E 4 o.@.+.+.+.+.+.+.+.#.s i E 4 o.@.+.+.+.+.+.7 S ~ I V B B B B ",
"' ' / I ^ ( ` S 7 +.+.+.+.+.+.#.s i E 4 X.@.+.+.+.+.+.+.+.#.s i E 4 o.+.+.+.+.+.+.+.+.#.s i E 4 o.+.+.+.+.+.+.7 S U P B B B B B ",
"` ` ` U U / ` S : 7 7 7 7 7 7 8 > i E 4 X.@.+.+.+.+.+.+.+.#.s i E 4 o.@.+.+.+.+.+.+.+.#.s i E 2 7 8 7 7 7 7 7 : S U P B B B B B ",
"` ` ` ^ I / _ E C C C C C C C C C K E 3 X.@.+.+.+.+.+.+.+.#.s i E 1 o.@.+.+.+.+.+.+.+.#.s i / S C C C C C C C C E U J B B B B B ",
"` ` ` / I ^ / / _ _ _ ^ S C C C C K E 3 X.@.+.+.+.+.+.+.+.#.s i E 1 o.@.+.+.+.+.+.+.+.#.s i / S C C C C D / _ _ / I J B N N N N ",
"` ` ` / I E / / / / / K : 7 7 8 > t E 3 X.@.+.+.+.+.+.+.+.#.s i L < o.@.+.+.+.+.+.+.+.#.s i E < 7 8 8 4 5 ^ / / / I H N m m m m ",
"/ / _ / P U / / / / / K 4 O.+.#.s t L < X.@.+.+.+.+.+.+.+.#.s i L < o.@.+.+.+.+.+.+.+.#.s i L < v +.@.v 5 E / / / I H m m m m m ",
"/ / / / P U / / / / / K 4 O.+.#.s t L < X.@.+.+.+.+.+.+.+.#.s i L < o.@.+.+.+.+.+.+.+.#.s i L < X.+.#.v 5 E / / / I H m m m m m ",
"/ / / / P I / / / / / K 1 O.+.#.s r L < X.@.+.+.+.+.+.+.+.+.s i L < o.@.+.+.+.+.+.+.+.#.s i L < v +.@.v 5 E / / / I H m m m m m ",
"/ / / ^ P I ^ / / / / K : 7 7 8 > e L < X.@.+.+.+.+.+.+.+.#.s i L < o.@.+.+.+.+.+.+.+.+.s i L < 7 8 8 7 2 E / / ^ I G m m m m m ",
"/ / / / P J ^ / / / / E C C C C C F L < X.@.+.+.+.+.+.+.+.#.s i L < o.@.+.+.+.+.+.+.+.+.s r E S C C C C A ^ / / / I V m n n n n ",
"^ ^ ^ ^ I J K C C C C C C C C C C F L < X.@.+.+.+.+.+.+.+.#.s t L < o.@.+.+.+.+.+.+.+.+.s e E S C C C C C C C C C A V n n n n n ",
"^ ^ ^ ^ I H a : 7 7 7 7 7 7 7 7 > e L < X.@.+.+.+.+.+.+.+.#.s r L < o.@.+.+.+.+.+.+.+.#.s e L < 7 7 7 7 7 7 7 7 : u V n n n n n ",
"^ ^ ^ ^ I H a 0 +.+.+.+.+.+.+.#.s e L < X.@.+.+.+.+.+.+.+.#.s e K < o.@.+.+.+.+.+.+.+.#.s e K < o.+.+.+.+.+.+.+.9 y V n n n n n ",
"^ ^ ^ ^ I G p 0 #.+.+.+.+.+.+.#.s e K < X.@.+.+.+.+.+.+.+.#.s e K < o.@.+.+.+.+.+.+.+.#.s e K < o.@.+.+.+.+.+.#.9 y V n b b b b ",
"~ ~ ~ ^ I G u 0 #.+.+.+.+.+.+.#.s e K < X.@.+.+.+.+.+.+.+.#.s e K < o.@.+.+.+.+.+.+.+.#.s e K < o.@.+.+.+.+.+.#.9 y G B b ; ; ; ",
"U U U ~ P V y 9 #.+.+.+.+.+.+.#.s e K < o.@.+.+.+.+.+.+.+.#.s e K < o.@.+.+.+.+.+.+.+.#.s e K < o.@.+.+.+.+.+.#.9 y V B n ; ; ; ",
"U U U U J V y 0 #.#.#.#.#.#.#.#.s e K < o.#.#.#.#.#.#.#.#.#.s e K < o.#.#.#.#.#.#.#.#.#.s e K < o.#.#.#.#.#.#.#.0 u V B n ; ; ; ",
"U U U U J B y , s s s s s s s s 8 e K < q s s s s s s s s s 8 e K < q s s s s s s s s s 8 e K < q s s s s s s s , a H N ; ; ; ; ",
"I I I U J B p @ e e e e e e e e r h I i e e e e e e e e e e e h K i e e e e e e e e e e e h K i e e e e e e e e r M V m ; ; ; ; ",
"I I I I H B B B J U U U U U U U U U K K K K K K K K A J K K K K K K K K K K K K K K K K K K K U U U U U U U U U U I B n - - - - ",
"I I I I G N N N B I I I I I I I I h 2 < < < < < < < 1 < < < < < < < < < < < < < < < < < < < 2 A U U U U U U U U U J N b = = = = ",
"I I I H N N N N N B B B B B B B y 1 c o.o.o.o.o.o.o.o.o.o.o.o.o.o.o.o.o.o.o.o.o.o.o.o.o.o.o.w 2 M V V V V V V V V B N ; = = = = ",
"P I H N m m n n n n n n n n n % 1 v #.@.@.@.@.@.@.@.@.@.@.@.@.@.@.@.@.@.@.@.@.@.@.@.@.@.@.#.+.q o n N m m m m m m m m n ; = = = ",
"P J N m n = = = = = = = = = + 1 X.#.#.#.#.#.#.#.#.#.#.#.#.#.#.#.#.#.#.#.#.#.#.#.#.#.#.#.#.#.#.+.9 @ ; ; ; b b b b n n m m n - = ",
"J B n n = * * * * * * * & O   q d d d d d d d d d d d d d d d d d d d d d d d d d d d d d d d d s : O * * * * = = = = b m m n = ",
"B n b = & & & & & & & * # . . X . . . . . . . . . . . . . . . . . . . . . . . . . . . . . . . . . . . $ * & & & & & & = n n n ; ",
"n b = & & & & & & & & & & & & & & & & & & & & & & & & & & & & & & & & & & & & & & & & & & & & & & & & & & & & & & & & * = b n n ",
"b = & * * * * & & & & & & & & & & & & & & & & & & & & & & & & & & & & & & & & & & & & & & & & & & & & & & & & & & & & & & = ; n "
};
