/* XPM */
static char *b2a1868c8fab45fef79a121f2bf18015V1mC1jtt8s8JsoRN[] = {
/* columns rows colors chars-per-pixel */
"48 96 13 1 ",
"  c None",
". c #181425",
"X c #3E2731",
"o c #733E39",
"O c #262B44",
"+ c #3A4466",
"@ c #A22633",
"# c #E43B44",
"$ c #B86F50",
"% c #D77643",
"& c #C28569",
"* c #E4A672",
"= c #5A6988",
/* pixels */
"                                                ",
"                                                ",
"                                                ",
"                                                ",
"                                                ",
"                                                ",
"                                                ",
"                                                ",
"                                                ",
"                                                ",
"                                                ",
"                                                ",
"                                                ",
"                                                ",
"                                                ",
"                                                ",
"                                                ",
"                                                ",
"                                                ",
"                                                ",
"                                                ",
"                                      .....     ",
"                                     .+OOO+.    ",
"                                    .O++==+O.   ",
"                                   .O+=====+O.  ",
"                   ...XX           .+=+====+O.  ",
"                 ..o$$$oXX         .++====+=+.  ",
"                .o$$&&&$$oX        .+=+==+==O.  ",
"               .o$$&&&*&&$oX       .O+=O+==+O.  ",
"             ..ooo$$$&&&&&$XX       .+=+O++O.   ",
"            .o$o$&&$o$&&&&$oX XXX    .=++OO.    ",
"            .oo$$$&&$o$&$$oXXX$&$X   .=+++.     ",
"            ..Xoooo$$o$$XXX$&&o$X   ..=+=+.     ",
"          ..o$oX..XXXo$X$&&oo$oX    .O+=+O.     ",
"        ..o$&oXX.@#.o$$XXXo$$.....  .O+=+.      ",
"       .o$&$o$$oX..o$&$Xoo$X...XXX..O++=O.      ",
"      .o$$$$$XX$Xo$$&*$oXoXoX..XooX.O=++.       ",
"       ......X$o$o$&&$o$oXo$o..Xooo.O+O+.       ",
"            .XXXXXo$$o$&$Xo$o.O.ooo.O=+O.       ",
"           ..o$&&&$$$$$$oXo$o.O.Xoo.O=+.        ",
"          .XX.o$&$oXXXXXXo&$X.O.Xo..O++.        ",
"         .XooX....XXoXXXoo$o.OO.XX......        ",
"        .Xoo$oX.OO.oo$oXooo.OOOO..$&&$$X.       ",
"        .oo$$$oX.OO..oooo..OO+OO.Xooo$oX.       ",
"        .o$&&ooo.OOOO....OOO++OO.o$&&$o.        ",
"        .o$&&oXo.OOOOOOOOOO+++...ooo$$o..       ",
"        .o$&&ooX.O++++++OO+++O.oXX$&&$X..       ",
"        .o$&$o$o.OO+++OOO+++O.X$Xooooo.oX.      ",
"        .Xo&$o&$o.OO++++++++.Xo$Xo$$oXXoX.      ",
"         .o$$$$&$.OOO+++++++.Xo$$XXX..o$oX.     ",
"          .o&&$&&o.O+O+++++..o$$$$$oXXo$$X.     ",
"          .o&&o&&o.OO++++++.oo$$$oooXooo$o.     ",
"           X$&$$&oX.XXXXXXXX$o$$$$oXXooooo.     ",
"           .o$&o$ooo$$$oooo$$$o$ooXXXooooX.     ",
"            Xo&$oo$&$ooo$$$$$$o$$oX.oXooXo.     ",
"            .Xo$$$&$o$$&$$ooo$oooX..XX....      ",
"             .o$&&$o$&$$oooX..........          ",
"             .oo$$o$$$oooX..O.++...             ",
"              .oooo$oooX.X.........             ",
"              .o&$oX...XooX.OO.....             ",
"              .......XX....o.......             ",
"              .......Xo...Xo....XXX.            ",
"             .XXX....XXoo%oX...XooXX.           ",
"            .XXoXX....XXXXX..XoooooX.           ",
"            .XoooXXX.........ooooooXX.          ",
"           .XooooooXX.OOOOO..oooo$ooX.          ",
"          .XoooooXooXX.OOO..Xooooo$$XX.         ",
"          .XooooXoooXX......XXoo$o$$oX.         ",
"         .XoooooooXXXX..    .XXo$o$$oX.         ",
"         .XooooXoXX...       .XXoo$$$X.         ",
"        .XooooXoXX.           .Xoo$$$X..        ",
"        .XXoooXXX.            ..XXoo$$X.        ",
"       .XXoXXooX.             ...oo$$$X.        ",
"       .XooXXXo.              .O..XoooX.        ",
"       .XoooXoX.              .+O..XX...        ",
"        .XooXooX.             .O+O....+.        ",
"        .XXXoooX..            .++=+===O.        ",
"       ...XXXXX.O.            .O++=+=O.         ",
"       .O......O+.             .O++=++.         ",
"       .+++++=+=O.             .+O++OO.         ",
"       .O+=+===+.             .O.OOO...         ",
"        .O+===+O.            .OOO...OO.         ",
"        .O=+=+=O.            .OOOOOOOOO.        ",
"        .+O+++O.             .OOOOOOOOOO        ",
"        ..OO.O..              .OOOO++++O.       ",
"       .......OO.              .OO+++==+O.      ",
"      ..OOOOOO+O.               .O++++==+.      ",
"    ..O++++O++++O.              .OO++++++.      ",
"  ..++++++++O+++O.               .O+++++O.      ",
"  .OOOO++++++OOOO.                .......       ",
"  .OOOOO+++++....                               ",
"  ...........                                   ",
"                                                ",
"                                                ",
"                                                ",
"                                                "
};
